<svg width="1080" height="124" viewBox="0 0 1080 124" fill="none" xmlns="http://www.w3.org/2000/svg">
<path d="M1098.01 5.5807C1098.01 5.5807 910.239 78.8462 732 15.6237" stroke="#373435" stroke-width="1.01065"/>
<path fill-rule="evenodd" clip-rule="evenodd" d="M1029.83 51.0813C1034.47 59.2386 1040.14 67.428 1046.66 73.6424C1047.99 74.9174 1049.56 76.7889 1051.16 76.0353C1054.71 74.4496 1057.83 51.367 1063.53 49.3634C1064.81 48.8706 1072.01 53.9921 1073.25 54.91L1088.99 64.5494C1092.61 66.403 1093.41 65.8423 1093.72 65.9566L1081.3 42.724L1081.75 43.4562C1075.96 30.8096 1074.19 26.9238 1072.82 14.8164L1071.83 14.5843C1064.24 16.8522 1056.58 18.8522 1049.26 20.6808L1034.74 24.1166L1018.96 27.2952L1018.98 27.3845C1021.88 35.2989 1025.47 43.3276 1029.83 51.0813Z" fill="#F58634"/>
<path fill-rule="evenodd" clip-rule="evenodd" d="M1000.85 30.556L960.354 35.9418L954.7 36.5347L960.161 49.7278C964.704 60.6172 968.757 71.8103 975.768 80.8997L978.322 81.4176C981.626 79.9783 983.079 64.0244 987.615 63.0459L995.754 68.2209C1004.26 74.5246 1004.62 73.6925 1013.93 78.6818L1016.46 77.8997C1022.42 66.3888 1005.7 43.5241 1000.85 30.556Z" fill="#ED3237"/>
<path fill-rule="evenodd" clip-rule="evenodd" d="M881.574 40.6741C882.56 48.3885 884.795 56.6458 888.574 66.6852C891.713 75.1961 895.488 83.6498 899.185 91.7499C899.635 92.8571 900.549 95.5393 902.746 94.55C904.342 93.8 916.882 74.9354 922.135 73.0389C923.207 73.6246 924.103 74.2532 925 74.8854C932.082 80.3105 932.103 81.9891 940.15 85.9713C942.078 87.0106 951.161 91.0285 951.007 87.232C950.843 70.3532 940.646 54.5386 937.41 38.1062L937.321 38.1276L893.928 40.367L881.574 40.6741Z" fill="#0098DA"/>
<path fill-rule="evenodd" clip-rule="evenodd" d="M790.165 29.7489L789.287 29.581L788.801 29.5096C776.922 27.0881 765.065 24.3809 753.19 21.588C752.618 26.6774 751.761 31.7382 750.865 36.6275C750.243 40.324 749.557 44.1348 749.025 47.8099C748.3 53.0314 747.804 57.635 747.64 62.0673C747.49 66.9638 747.747 71.2031 748.511 75.2282L748.529 75.6925C748.654 76.2246 748.825 76.5568 749.175 76.8461C749.743 77.2746 750.425 77.3925 751.047 77.2461C756.318 75.4353 761.615 73.3389 766.715 71.196C771.461 69.1388 775.633 67.0281 779.608 64.8709C781.954 69.646 784.069 73.4424 786.365 76.8246C787.622 78.5854 789.183 80.8319 791.408 82.7355C792.24 83.4748 793.137 84.1033 793.969 84.4676C794.494 84.7141 795.001 84.8748 795.487 84.9498C796.058 84.9998 796.63 85.0498 797.34 84.8819L797.78 84.7783C798.469 84.5212 799.201 84.0676 799.783 83.3676C800.765 82.389 801.223 81.1604 801.68 79.9283C802.298 78.1925 802.605 76.3425 802.755 74.9996C803.094 72.4889 803.258 70.021 803.555 67.3316C803.841 63.8066 804.058 60.3887 804.258 56.885C804.626 50.1599 805.023 43.1491 806.012 36.2775L806.626 32.9525C801.455 32.0275 796.351 30.9953 791.265 30.0489C791.155 29.981 791.155 29.981 791.155 29.981L790.165 29.7489Z" fill="#EC268F"/>
<path fill-rule="evenodd" clip-rule="evenodd" d="M817.423 60.7744C818.762 69.9924 821.069 79.7282 824.919 87.6962C825.673 89.2963 826.484 91.5356 828.227 91.3999C832.091 91.1391 843.33 70.3424 849.398 70.3102C850.809 70.3495 855.595 77.5353 856.531 78.7139L867.581 93.0177C870.367 96.0964 871.317 95.7785 871.556 95.9999L868.374 69.9281L868.581 70.8138C867.806 56.8814 867.549 52.6421 870.606 40.699L869.752 40.249C861.884 39.774 854.106 39.2811 846.548 38.5454L831.766 36.9061L815.934 34.7668C815.719 43.3241 816.184 52.0028 817.423 60.7744Z" fill="#00A859"/>
<path d="M732.013 22.5807C732.013 22.5807 544.239 95.8462 366 32.6237" stroke="#373435" stroke-width="1.01065"/>
<path fill-rule="evenodd" clip-rule="evenodd" d="M663.826 68.0813C668.466 76.2386 674.144 84.428 680.662 90.6424C681.994 91.9174 683.559 93.7889 685.155 93.0353C688.705 91.4496 691.834 68.367 697.527 66.3634C698.813 65.8706 706.006 70.9921 707.252 71.91L722.992 81.5494C726.609 83.403 727.409 82.8423 727.717 82.9566L715.299 59.724L715.752 60.4562C709.956 47.8096 708.195 43.9238 706.82 31.8164L705.831 31.5843C698.238 33.8522 690.58 35.8522 683.259 37.6808L668.744 41.1166L652.958 44.2952L652.98 44.3845C655.88 52.2989 659.466 60.3276 663.826 68.0813Z" fill="#F58634"/>
<path fill-rule="evenodd" clip-rule="evenodd" d="M634.851 47.556L594.354 52.9418L588.7 53.5347L594.161 66.7278C598.704 77.6172 602.757 88.8103 609.768 97.8997L612.322 98.4176C615.626 96.9783 617.079 81.0244 621.615 80.0459L629.754 85.2209C638.258 91.5246 638.622 90.6925 647.933 95.6818L650.458 94.8997C656.423 83.3888 639.697 60.5241 634.851 47.556Z" fill="#ED3237"/>
<path fill-rule="evenodd" clip-rule="evenodd" d="M515.574 57.6741C516.56 65.3885 518.795 73.6458 522.574 83.6852C525.713 92.1961 529.488 100.65 533.185 108.75C533.635 109.857 534.549 112.539 536.746 111.55C538.342 110.8 550.882 91.9354 556.135 90.0389C557.207 90.6246 558.103 91.2532 559 91.8854C566.082 97.3105 566.103 98.9891 574.15 102.971C576.078 104.011 585.161 108.029 585.007 104.232C584.843 87.3532 574.646 71.5386 571.411 55.1062L571.321 55.1276L527.928 57.367L515.574 57.6741Z" fill="#0098DA"/>
<path fill-rule="evenodd" clip-rule="evenodd" d="M424.165 46.7489L423.287 46.581L422.801 46.5096C410.922 44.0881 399.065 41.3809 387.19 38.588C386.618 43.6774 385.761 48.7382 384.865 53.6275C384.243 57.324 383.557 61.1348 383.025 64.8099C382.3 70.0314 381.804 74.635 381.64 79.0673C381.49 83.9638 381.747 88.2031 382.511 92.2282L382.529 92.6925C382.654 93.2246 382.825 93.5568 383.175 93.8461C383.743 94.2746 384.425 94.3925 385.047 94.2461C390.318 92.4353 395.615 90.3389 400.715 88.196C405.461 86.1388 409.633 84.0281 413.608 81.8709C415.954 86.646 418.069 90.4424 420.365 93.8246C421.622 95.5854 423.183 97.8319 425.408 99.7355C426.24 100.475 427.137 101.103 427.969 101.468C428.494 101.714 429.001 101.875 429.487 101.95C430.058 102 430.63 102.05 431.34 101.882L431.78 101.778C432.469 101.521 433.201 101.068 433.783 100.368C434.765 99.389 435.223 98.1604 435.68 96.9283C436.298 95.1925 436.605 93.3425 436.755 91.9996C437.094 89.4889 437.258 87.021 437.555 84.3316C437.841 80.8066 438.058 77.3887 438.258 73.885C438.626 67.1599 439.023 60.1491 440.012 53.2775L440.626 49.9525C435.455 49.0275 430.351 47.9953 425.265 47.0489C425.155 46.981 425.155 46.981 425.155 46.981L424.165 46.7489Z" fill="#EC268F"/>
<path fill-rule="evenodd" clip-rule="evenodd" d="M451.423 77.7744C452.762 86.9924 455.069 96.7282 458.919 104.696C459.673 106.296 460.484 108.536 462.227 108.4C466.091 108.139 477.33 87.3424 483.398 87.3102C484.809 87.3495 489.595 94.5353 490.531 95.7139L501.581 110.018C504.367 113.096 505.317 112.779 505.556 113L502.374 86.9281L502.581 87.8138C501.806 73.8814 501.549 69.6421 504.606 57.699L503.752 57.249C495.884 56.774 488.106 56.2811 480.548 55.5454L465.766 53.9061L449.934 51.7668C449.719 60.3241 450.184 69.0028 451.423 77.7744Z" fill="#00A859"/>
<path d="M366.013 33.5807C366.013 33.5807 178.239 106.846 0 43.6237" stroke="#373435" stroke-width="1.01065"/>
<path fill-rule="evenodd" clip-rule="evenodd" d="M297.826 79.0813C302.466 87.2386 308.144 95.428 314.662 101.642C315.994 102.917 317.559 104.789 319.155 104.035C322.705 102.45 325.834 79.367 331.527 77.3634C332.813 76.8706 340.006 81.9921 341.252 82.91L356.992 92.5494C360.609 94.403 361.409 93.8423 361.717 93.9566L349.299 70.724L349.752 71.4562C343.956 58.8096 342.195 54.9238 340.82 42.8164L339.831 42.5843C332.238 44.8522 324.58 46.8522 317.259 48.6808L302.744 52.1166L286.958 55.2952L286.98 55.3845C289.88 63.2989 293.466 71.3276 297.826 79.0813Z" fill="#F58634"/>
<path fill-rule="evenodd" clip-rule="evenodd" d="M268.851 58.556L228.354 63.9418L222.7 64.5347L228.161 77.7278C232.704 88.6172 236.757 99.8103 243.768 108.9L246.322 109.418C249.626 107.978 251.079 92.0244 255.615 91.0459L263.754 96.2209C272.258 102.525 272.622 101.692 281.933 106.682L284.458 105.9C290.423 94.3888 273.697 71.5241 268.851 58.556Z" fill="#ED3237"/>
<path fill-rule="evenodd" clip-rule="evenodd" d="M149.574 68.6741C150.56 76.3885 152.795 84.6458 156.574 94.6852C159.713 103.196 163.488 111.65 167.185 119.75C167.635 120.857 168.549 123.539 170.746 122.55C172.342 121.8 184.882 102.935 190.135 101.039C191.207 101.625 192.103 102.253 193 102.885C200.082 108.31 200.103 109.989 208.15 113.971C210.078 115.011 219.161 119.029 219.007 115.232C218.843 98.3532 208.646 82.5386 205.411 66.1062L205.321 66.1276L161.928 68.367L149.574 68.6741Z" fill="#0098DA"/>
<path fill-rule="evenodd" clip-rule="evenodd" d="M58.1653 57.7489L57.2867 57.581L56.801 57.5096C44.9222 55.0881 33.0649 52.3809 21.1897 49.588C20.6183 54.6774 19.7611 59.7382 18.8647 64.6275C18.2432 68.324 17.5575 72.1348 17.0253 75.8099C16.3003 81.0314 15.8039 85.635 15.6396 90.0673C15.4896 94.9638 15.7467 99.2031 16.511 103.228L16.5289 103.692C16.6539 104.225 16.8253 104.557 17.1753 104.846C17.7432 105.275 18.4254 105.393 19.0468 105.246C24.3183 103.435 29.6148 101.339 34.7149 99.196C39.4614 97.1388 43.6329 95.0281 47.608 92.8709C49.9545 97.646 52.0688 101.442 54.3652 104.825C55.6224 106.585 57.1831 108.832 59.4082 110.735C60.2403 111.475 61.1368 112.103 61.9689 112.468C62.4939 112.714 63.0011 112.875 63.4868 112.95C64.0583 113 64.6297 113.05 65.3404 112.882L65.7797 112.778C66.469 112.521 67.2012 112.068 67.7833 111.368C68.7655 110.389 69.2226 109.16 69.6798 107.928C70.2976 106.193 70.6048 104.342 70.7548 103C71.0941 100.489 71.2584 98.021 71.5548 95.3316C71.8405 91.8066 72.0584 88.3887 72.2584 84.885C72.6263 78.1599 73.0227 71.1491 74.012 64.2775L74.6263 60.9525C69.4548 60.0275 64.3511 58.9953 59.2653 58.0489C59.1546 57.981 59.1546 57.981 59.1546 57.981L58.1653 57.7489Z" fill="#EC268F"/>
<path fill-rule="evenodd" clip-rule="evenodd" d="M85.4229 88.7744C86.7622 97.9924 89.0694 107.728 92.9194 115.696C93.673 117.296 94.4837 119.536 96.2266 119.4C100.091 119.139 111.33 98.3424 117.398 98.3102C118.809 98.3495 123.595 105.535 124.531 106.714L135.581 121.018C138.367 124.096 139.317 123.779 139.556 124L136.374 97.9281L136.581 98.8138C135.806 84.8814 135.549 80.6421 138.606 68.699L137.752 68.249C129.884 67.774 122.106 67.2811 114.548 66.5454L99.766 64.9061L83.9336 62.7668C83.7193 71.3241 84.1836 80.0028 85.4229 88.7744Z" fill="#00A859"/>
</svg>
