<svg width="1080" height="286" viewBox="0 0 1080 286" fill="none" xmlns="http://www.w3.org/2000/svg">
<path d="M47.9997 239.203C48.593 235.064 48.8925 230.812 49.0408 226.438C48.9625 222.643 48.7442 218.864 48.232 214.971C47.5827 211.092 46.6395 207.101 45.4416 203.415C43.642 197.815 41.3106 192.547 38.7245 187.585C38.8644 187.574 38.8784 187.711 38.8896 187.851C38.8784 187.711 38.8644 187.574 38.7105 187.448C38.7105 187.448 38.7105 187.448 38.6965 187.308L38.7105 187.448C37.8401 185.699 36.8157 183.826 35.8054 182.094C34.7838 180.219 33.6195 178.36 32.7351 176.474C32.2257 175.536 31.7136 174.601 31.2014 173.664C29.9307 170.689 28.8028 167.7 28.0779 164.531C27.0956 160.12 26.964 155.768 27.4286 151.783C27.5714 148.816 28.1563 146.085 28.7412 143.356C28.856 143.062 28.842 142.925 28.954 142.631C28.9679 142.771 28.828 142.785 28.842 142.925C28.828 142.785 28.954 142.631 28.9428 142.491L28.9288 142.351C28.9288 142.351 28.9288 142.351 28.9428 142.491C29.1163 141.349 29.2758 140.067 29.4493 138.925C29.5081 138.074 29.7068 137.212 29.6285 136.376C29.6481 135.105 29.5417 133.991 29.4241 132.734C29.1247 131.075 28.6853 129.426 28.2599 127.918C27.451 125.323 26.3735 122.891 25.3099 120.599C24.9797 120.067 24.6326 119.398 24.1596 118.878C23.8154 118.209 23.4823 117.677 23.1493 117.145C23.1381 117.005 22.9841 116.879 22.9702 116.739C23.1101 116.725 23.25 116.714 23.376 116.56C24.8593 115.858 26.1776 114.887 27.507 114.058C27.8512 114.727 28.1843 115.259 28.5313 115.93C29.2086 117.131 29.8859 118.335 30.4233 119.549C31.3217 121.576 32.0662 123.476 32.6847 125.528C33.3005 127.582 33.7791 129.647 34.1037 131.587C34.3388 132.55 34.4312 133.526 34.5235 134.5C34.6299 135.617 34.5963 136.748 34.5627 137.876C34.6019 138.296 34.5011 138.727 34.5431 139.144C34.434 140.985 34.1765 142.698 33.9022 144.271C33.7427 145.553 33.5691 146.698 33.2697 147.991C32.8359 150.848 32.2649 153.717 32.1362 156.826C32.1418 158.374 32.2873 159.908 32.5868 161.567C32.7211 162.964 33.1325 164.333 33.53 165.561C34.3276 168.019 35.3912 170.311 36.4407 172.46C37.8093 175.004 39.1779 177.549 40.5493 180.093C42.111 183.182 43.5468 186.423 44.9798 189.664C47.7114 196.16 49.9112 202.989 51.6913 209.858C52.4273 213.166 52.8864 216.499 53.1914 219.709C53.5105 223.057 53.3957 226.303 53.2698 229.413C53.0011 235.489 52.1335 241.201 52.0187 247.406C52.0187 247.406 52.0327 247.546 52.0467 247.686C52.0327 250.502 52.1727 253.443 52.4497 256.373C52.6764 258.744 52.9143 261.255 53.2782 263.614C53.67 266.25 54.1878 268.733 54.7196 271.358C55.2233 273.704 55.7439 276.186 56.3988 278.657C56.6059 279.34 56.813 280.026 57.0313 280.849C57.2636 281.812 57.342 282.648 57.2972 283.639C57.2357 284.49 56.7571 285.38 56.2253 285.71C55.6935 286.043 54.9826 285.971 54.2438 285.618C53.8127 285.517 53.3649 285.279 53.0347 284.748C52.7016 284.216 52.4945 283.533 52.4301 282.836C50.8069 277.641 49.2004 272.587 48.1256 267.199C47.0621 261.951 46.8634 256.902 46.9445 251.828C47.0453 251.397 47.0061 250.98 46.9781 250.7C47.1181 247.731 47.4007 244.747 47.6918 241.907C47.8933 241.042 47.9381 240.054 47.9997 239.203Z" fill="#00A859"/>
<path d="M46.1693 216.997C46.8158 219.328 47.1657 221.548 47.6583 223.753C48.0109 225.97 48.3496 228.049 48.6882 230.129C48.7274 230.549 48.7526 230.826 48.6406 231.12C48.3216 230.728 48.0025 230.336 47.8094 229.79C47.3364 229.272 46.8662 228.755 46.5332 228.223C46.494 227.803 46.3009 227.26 46.2477 226.7C46.2085 226.283 46.1665 225.864 45.9874 225.461C46.1665 225.864 46.2085 226.283 46.2617 226.84C46.3009 227.26 46.34 227.677 46.368 227.957C46.2281 227.971 46.0742 227.845 46.0602 227.705C45.7551 227.453 45.3241 227.353 45.0694 227.658C44.8175 227.963 44.5656 228.268 44.3109 228.576C44.2997 228.436 44.4257 228.282 44.4117 228.142C44.213 226.051 44.0282 224.098 43.5497 222.032C43.7008 222.158 43.7148 222.298 43.7148 222.298C43.7008 222.158 43.7008 222.158 43.5497 222.032C42.9507 218.71 42.0607 215.276 41.0587 212.136C41.0587 212.136 41.0587 212.136 41.0447 211.996C41.0307 211.856 41.0196 211.716 41.0056 211.576C41.0196 211.716 41.0196 211.716 41.0307 211.856C39.8497 208.31 38.6798 204.901 37.244 201.66C35.6683 198.433 33.9806 195.497 32.3069 192.701C32.2929 192.561 32.2929 192.561 32.2789 192.421C32.139 192.435 32.139 192.435 32.1278 192.295C31.1175 190.56 30.1071 188.827 29.0827 186.955C27.5882 184.562 26.3567 182.007 25.1029 179.169C24.0505 177.016 23.1157 174.573 22.3181 172.116C21.1622 168.847 20.1322 165.427 19.3822 161.979C18.7776 160.067 18.299 158.001 17.9744 156.062C16.7849 150.965 16.0012 145.692 15.5114 140.531C15.2456 137.741 15.1196 134.939 15.1476 132.261C15.1476 129.306 15.1476 126.35 15.3015 123.52C15.4555 120.691 15.7493 117.847 16.1971 115.132C16.5302 112.709 17.1543 110.397 17.9604 108.491C18.1731 107.766 18.912 108.119 19.2702 108.928C19.4213 109.054 19.4213 109.054 19.4353 109.193C19.5893 109.319 19.8803 109.434 20.0483 109.7C20.5185 110.218 20.9915 110.736 21.4756 111.393C21.6548 111.799 21.9626 112.051 22.0158 112.608C22.2061 113.154 22.2593 113.711 22.1474 114.002C22.1474 114.002 22.1474 114.002 22.1613 114.142C22.1865 114.422 22.2145 114.701 22.0998 114.993C21.7079 118.267 20.5241 120.632 20.1154 123.767C19.9615 126.596 19.9755 129.692 20.1266 132.773C20.4037 138.659 21.2797 144.909 22.4244 150.993C22.9534 153.616 23.4712 156.101 24.0029 158.724C24.5487 161.489 25.2456 164.377 26.0684 167.114C27.8289 172.295 29.6901 177.044 31.9711 181.755C33.7371 185.528 35.5059 189.3 37.4259 193.199C38.1312 194.68 38.8477 196.3 39.567 197.921C40.6417 200.353 41.7053 202.642 42.6568 205.228C44.0059 209.04 45.2261 213.006 46.1693 216.997Z" fill="#00AFEF"/>
<path d="M5.66245 262.228C5.60927 261.672 5.86116 261.364 5.97591 261.073C6.21381 260.628 6.33975 260.474 6.60564 260.309C7.16539 260.255 7.72515 260.202 8.26811 260.009C9.93059 259.712 11.6938 258.979 13.1632 258.137C29.5781 244.05 34.3192 200.532 21.442 168.822C16.8492 157.576 16.74 143.09 20.899 134.954C21.9038 132.183 22.4635 129.174 22.9953 125.886C23.4011 122.751 23.5159 119.505 23.6306 116.255C23.709 114.136 23.7902 112.018 24.0225 110.025C24.2912 106.904 24.6102 104.338 25.1084 102.18C25.184 101.469 25.4079 100.884 25.6234 100.162C25.9424 100.554 26.2615 100.946 26.5666 101.198C26.7065 101.184 26.8324 101.033 27.1123 101.005C26.8772 102.997 26.6589 105.13 26.5778 107.249C26.3762 111.069 26.3287 115.012 26.7261 119.197C26.978 121.847 27.3838 124.623 27.7896 127.4C27.5881 131.22 27.2215 134.775 26.8296 138.049C26.2363 142.186 26.978 250.773 25.6598 254.697C24.3415 258.624 22.5531 262.03 20.4176 264.767C18.9147 266.74 17.3698 268.293 15.6345 269.304C14.557 269.827 13.6054 270.199 12.6426 270.432C11.5371 270.678 10.4204 270.784 9.27848 270.611C9.12454 270.485 8.81947 270.233 8.50041 269.841C8.47243 269.561 8.32129 269.435 8.2933 269.155C7.50964 266.838 6.57205 264.395 5.66245 262.228C5.29021 261.277 6.32016 264.7 5.94792 263.748C5.75481 263.205 5.70163 262.645 5.66245 262.228Z" fill="#F4BA15"/>
<path d="M52.3266 247.658C53.0375 250.686 53.7344 253.577 54.5712 256.452C55.408 259.329 56.2309 262.066 57.0565 264.8C57.2356 265.206 57.4148 265.612 57.7198 265.864C57.7926 265.153 57.8682 264.442 57.9409 263.731C58.1397 262.869 58.3524 262.144 58.4139 261.293C58.2068 260.611 57.9885 259.788 57.7814 259.102C57.5883 258.559 57.5491 258.139 57.356 257.593C57.5491 258.139 57.7422 258.685 57.9353 259.228C58.1285 259.774 58.3216 260.319 58.5119 260.862C58.6266 260.571 58.6126 260.431 58.5986 260.291C58.8393 259.846 59.3571 259.376 59.8021 259.614C60.11 259.866 60.555 260.107 61 260.345C60.8349 260.079 60.8209 259.939 60.667 259.813C59.7322 257.37 58.9205 254.772 58.1089 252.175C58.1229 252.315 58.1369 252.455 58.1508 252.592C58.1369 252.455 58.1089 252.175 58.0977 252.035C56.8466 247.792 55.8502 243.241 55.1478 238.805C55.1617 238.942 55.1617 238.942 55.1617 238.942L55.1478 238.805C55.1338 238.665 55.1086 238.385 55.0946 238.245C55.1086 238.385 55.1086 238.385 55.1226 238.525C54.3921 233.809 53.6476 228.954 53.4881 224.324C53.3173 219.555 53.4657 215.178 53.74 210.647L53.726 210.51C53.712 210.37 53.712 210.37 53.7008 210.23C53.8659 207.54 54.0338 204.85 54.0618 202.172C54.2605 198.354 54.1822 194.562 54.0898 190.63C53.7735 187.282 53.4545 183.932 52.9955 180.599C52.4189 176.009 51.5485 171.307 50.5521 166.756C49.8832 164.145 49.3515 161.522 48.6938 159.051C46.9137 152.183 44.7279 145.494 42.4413 139.238C40.9803 135.718 39.5305 132.337 38.0948 129.096C36.3399 125.463 34.6131 122.107 32.7463 118.765C31.0166 115.412 29.0239 112.225 27.0564 109.314C25.2539 106.669 23.3396 104.318 21.3272 102.398C20.6891 101.614 20.0706 102.518 20.0482 103.786C20.0482 103.786 20.0622 103.926 20.0762 104.066C19.9614 104.357 19.7095 104.665 19.6088 105.096C19.3961 105.821 19.2114 106.823 19.0238 107.825C18.9371 108.396 18.9903 108.956 19.2086 109.779C19.2617 110.335 19.6088 111.007 19.9279 111.399C20.107 111.805 20.2861 112.211 20.4512 112.477C22.7798 116.196 25.3771 118.34 27.6917 121.92C29.5445 125.121 31.2993 128.757 32.9282 132.541C35.8641 139.723 38.4502 147.64 40.7536 155.583C41.7724 158.866 42.6484 162.161 43.5384 165.595C44.4536 169.306 45.2317 173.034 45.881 176.913C47.104 183.834 47.6134 190.68 47.8317 197.417C48.0948 203.163 48.1928 208.643 48.3047 214.26C48.3775 216.507 48.6042 218.878 48.677 221.123C48.8673 224.624 49.0604 228.122 49.5306 231.598C50.1743 236.885 51.1231 242.424 52.3266 247.658Z" fill="#D82A2B"/>
<path d="M35.3912 116.966C34.7222 114.357 34.1905 111.732 33.6587 109.11C33.4404 108.284 33.2081 107.321 32.9758 106.358C32.3433 104.167 31.8535 101.961 31.5008 99.742C30.9831 97.2595 30.6164 94.9001 30.1126 92.5547C29.802 90.7551 29.4885 88.9555 29.1779 87.1559C28.6713 84.8105 28.3074 82.4539 27.8009 80.1085C27.7757 79.8286 27.5965 79.4256 27.5686 79.1457C27.4034 78.8799 27.3894 78.7399 27.3642 78.46C27.0256 76.3833 26.6729 74.1639 26.3343 72.0844C26.3091 71.8045 26.13 71.4015 26.102 71.1216C26.5078 70.9425 26.8996 70.6234 27.2915 70.3044C28.7496 69.322 30.3198 68.0458 31.7499 66.7835C32.4076 66.2993 33.0514 65.6752 33.6979 65.0511C35.8138 63.5845 37.521 62.2943 39.0911 61.0208C42.9031 58.1241 45.8754 55.3085 48.2628 52.2662C48.9233 51.782 49.7069 51.1439 50.5046 50.6457C50.6305 50.4918 50.8964 50.3267 51.0252 50.1727C51.0252 50.1727 51.0364 50.3127 51.0503 50.4526C51.1287 51.2894 50.93 52.1543 50.7173 52.8764C50.6445 53.5872 50.4318 54.3121 50.0652 54.9111C49.4522 57.36 48.9653 59.6578 48.3411 61.9696C47.8681 64.4073 47.4091 66.985 46.9361 69.4228L46.9501 69.5627C46.1301 74.2843 45.338 79.2857 44.2577 85.7229L43.8239 88.5776C43.2585 92.9941 42.5392 97.2875 41.82 101.578C41.361 104.153 40.902 106.731 40.4542 109.448L40.2806 110.59C39.7824 112.748 39.2955 115.046 38.8113 117.346C38.6965 117.637 38.5706 117.791 38.4586 118.082C37.4063 118.886 36.3427 119.549 35.2792 120.215C35.1393 120.226 35.1393 120.226 35.1393 120.226C35.1253 120.089 35.1253 120.089 35.1113 119.949C35.2512 119.935 35.5171 119.77 35.797 119.742C35.5647 118.779 35.4723 117.803 35.3912 116.966Z" fill="#EC268F"/>
<path d="M3.26677 1.3705C3.26677 1.3705 3.26677 1.3705 3.40671 1.35931L3.26677 1.3705ZM48.2628 52.2664C45.8754 55.3087 42.9031 58.1242 39.0912 61.021C37.5211 62.2944 35.8138 63.5847 33.6979 65.0512C33.0514 65.6754 32.4077 66.2995 31.75 66.7837C30.3198 68.0459 28.7497 69.3222 27.2915 70.3045C26.8997 70.6236 26.5079 70.9427 26.102 71.1218L26.088 70.9818C25.9229 70.716 25.7578 70.4501 25.4499 70.1982C25.4499 70.1982 25.4499 70.1982 25.4387 70.0583C25.2848 69.9323 25.2848 69.9323 25.2708 69.7924C24.1009 66.3862 23.0598 62.8262 22.0438 59.5432C21.4113 57.3518 20.6416 55.1743 20.0231 53.12C19.3934 50.9286 18.6349 48.891 17.8764 46.8507L17.0788 44.3934C16.102 41.5302 15.1252 38.6671 14.2884 35.7927C13.7118 34.1583 13.1325 32.5238 12.6959 30.8753L11.4868 27.0493C10.5212 24.3261 9.68438 21.4518 8.84754 18.5746L8.39694 16.789C7.08151 11.8464 5.60095 6.63781 3.44589 1.77633C3.25277 1.23056 2.79657 0.852728 2.22282 0.765966C1.91775 0.514075 1.63788 0.542063 1.3468 0.427313C1.48674 0.416117 1.48674 0.416117 1.62388 0.402124C2.0437 0.362941 2.32358 0.334953 2.60346 0.309764C3.30035 0.242593 4.00005 0.175422 4.83688 0.0970563C4.83688 0.0970563 4.83689 0.0970561 4.97682 0.0830624L5.11676 0.0690685C5.24271 -0.0820662 5.39664 0.0438796 5.54778 0.169825C5.85284 0.421716 6.02077 0.6876 6.33983 1.07943C6.49097 1.20537 6.78484 1.31733 6.79883 1.45727C13.5383 10.1055 21.582 17.6454 29.3067 24.7935C36.2812 31.449 43.5469 38.2165 49.9141 45.9159C49.9281 46.0559 50.082 46.1818 50.0932 46.3218C50.4011 46.5737 50.7061 46.8255 50.7453 47.2454C50.8853 47.2314 51.0392 47.3573 51.0504 47.4973C51.5486 48.2949 51.515 49.4228 51.0252 50.1729C50.8965 50.3268 50.6306 50.492 50.5046 50.6459C49.707 51.1441 48.9233 51.7822 48.2628 52.2664Z" fill="#00AFEF"/>
<path d="M18.2627 123.52C18.2627 123.52 18.2739 123.66 18.4138 123.646C18.4138 123.646 18.3998 123.506 18.2627 123.52ZM-34.3293 69.8285C-34.0214 70.0804 -33.7303 70.1951 -33.2965 70.2931C-29.1291 71.1635 -24.9058 72.5937 -20.8363 73.8951C-16.182 75.4233 -11.5276 76.9514 -6.66049 77.7547C-4.76852 81.3763 -2.75899 84.704 -0.741066 88.1689C0.577161 90.1561 1.90658 92.2831 3.09607 94.4214C4.28555 96.5597 5.47503 98.698 6.67851 100.976C7.20188 102.054 7.86799 103.114 8.39137 104.192C9.89991 106.722 11.4085 109.252 12.791 111.936C13.9805 114.074 18.7497 118.267 19.6201 120.013C19.9923 120.965 20.3646 121.914 20.734 122.863C20.4569 122.891 20.191 123.056 20.0763 123.35C18.9064 125.852 16.964 126.176 16.2671 126.244C15.4275 126.325 15.9061 125.435 13.6531 123.96C13.5131 123.971 8.0751 120.125 5.36868 116.865C4.10643 115.437 2.83018 113.87 1.56793 112.44C-0.819435 109.571 -3.34394 106.714 -5.7313 103.845C-6.97956 102.557 -8.10467 101.116 -9.35292 99.8259C-10.145 98.9163 -10.7971 97.9927 -11.5864 97.0831C-12.3784 96.1735 -13.1425 95.5409 -13.9205 94.7713C-19.3642 89.378 -24.8106 83.9847 -29.7365 78.1185C-31.343 76.0194 -32.9523 73.9203 -34.2957 71.6561C-34.6539 70.8445 -35.0122 70.0356 -35.2333 69.2128C-35.0793 69.3387 -34.9254 69.4647 -34.7743 69.5906C-34.6203 69.7165 -34.4804 69.7026 -34.3293 69.8285Z" fill="#F58634"/>
<path d="M33.7567 120.501C32.4133 121.189 30.93 121.895 29.5726 122.446L29.4326 122.46C29.2927 122.471 29.1667 122.625 29.0268 122.639C28.481 122.832 27.9381 123.022 27.3923 123.216C25.895 123.781 24.3864 124.206 22.8751 124.632L22.7351 124.643C22.3181 124.685 22.0382 124.71 21.6184 124.749C21.2014 124.791 20.6556 124.982 20.2218 124.884C19.6649 124.937 19.0659 124.57 18.7609 124.318C18.6069 124.192 18.5929 124.052 18.5817 123.912C18.4278 123.787 18.4278 123.787 18.4138 123.647C18.0808 123.115 17.7365 122.446 17.4035 121.914C17.2103 121.368 17.0312 120.963 16.8521 120.56C16.4799 119.608 16.1076 118.659 15.7354 117.71C14.8538 115.824 13.9805 114.075 12.7911 111.937C11.4085 109.252 9.89992 106.722 8.39137 104.192C7.868 103.115 7.20189 102.054 6.67852 100.976C5.47504 98.6983 4.28556 96.56 3.09607 94.4217C1.90659 92.2834 0.577167 90.1564 -0.74106 88.1692C-2.75898 84.7043 -4.76851 81.3766 -6.66049 77.755L-6.81442 77.629C-6.8676 77.0721 -6.93477 76.3752 -6.98795 75.8154C-6.93477 76.3752 -6.75565 76.7782 -6.70247 77.3379C-6.50935 77.8809 -6.1763 78.4127 -5.73129 78.6534C-5.27229 79.0312 -4.54741 79.2439 -4.00164 79.0508C-3.8617 79.0368 -3.72176 79.0228 -3.59582 78.8717C-1.20846 78.7849 1.16491 78.5582 3.66423 78.1804C5.60658 77.8557 7.26906 77.5562 8.7916 77.2708C9.33736 77.0777 10.0343 77.0133 10.58 76.8202C11.2657 76.6131 11.9514 76.4087 12.6371 76.2016L14.2856 75.765L14.6914 75.5859C15.3743 75.3788 16.06 75.1717 16.6198 75.1185C17.0256 74.9394 17.3027 74.9142 17.5826 74.8862C18.1423 74.833 18.6993 74.7826 19.399 74.7155C19.9559 74.6623 20.6416 74.4552 21.2014 74.402C21.4813 74.3768 21.6184 74.3628 21.7584 74.3488C22.7239 74.1165 23.6755 73.7443 24.6131 73.2349C25.0189 73.0558 25.3828 72.4569 25.6095 71.8719C25.6963 71.301 25.6431 70.744 25.45 70.1982C25.7578 70.4501 25.923 70.716 26.0881 70.9819L26.1021 71.1218C26.1301 71.4017 26.3092 71.8047 26.3344 72.0846C26.673 74.1641 27.0257 76.3836 27.3643 78.4603C27.3895 78.7401 27.4035 78.8801 27.5686 79.146C27.5966 79.4258 27.7757 79.8289 27.8009 80.1087C28.3075 82.4541 28.6714 84.8107 29.1779 87.1561C29.4886 88.9557 29.8021 90.7553 30.1127 92.5549C30.6165 94.9003 30.9832 97.2597 31.5009 99.7422C31.8536 101.962 32.3434 104.167 32.9759 106.359C33.2082 107.321 33.4405 108.284 33.6588 109.11C34.1906 111.732 34.7223 114.357 35.3912 116.966C35.4724 117.803 35.5648 118.78 35.7971 119.742C35.5172 119.77 35.2513 119.935 35.1114 119.949C34.9854 120.101 34.8455 120.115 34.7055 120.129C34.4397 120.294 34.1626 120.322 33.8967 120.487L33.7567 120.501Z" fill="#A5BA46"/>
<path d="M3.44589 1.7762C5.60096 6.63769 7.08151 11.8462 8.39694 16.7889L8.84755 18.5745C9.68438 21.4516 10.5212 24.326 11.4868 27.0492L12.6959 30.8751C13.1325 32.5236 13.7118 34.1581 14.2884 35.7926C15.1252 38.667 16.102 41.5301 17.0788 44.3933L17.8764 46.8506C18.6349 48.8909 19.3934 50.9284 20.0231 53.1199C20.6416 55.1742 21.4113 57.3516 22.0438 59.5431C23.0598 62.8261 24.1009 66.3861 25.2708 69.7922C25.2848 69.9322 25.2848 69.9322 25.4387 70.0581C25.4499 70.1981 25.4499 70.1981 25.4499 70.1981C25.643 70.7438 25.6962 71.3008 25.6095 71.8717C25.3828 72.4567 25.0189 73.0556 24.6131 73.2347C23.6755 73.7441 22.7239 74.1163 21.7583 74.3486C21.6184 74.3626 21.4813 74.3766 21.2014 74.4018C20.6416 74.455 19.9559 74.6621 19.399 74.7153C18.6993 74.7825 18.1423 74.8328 17.5825 74.886C17.3027 74.914 17.0256 74.9392 16.6198 75.1183C16.06 75.1715 15.3743 75.3786 14.6914 75.5857L14.2856 75.7648L12.6371 76.2014C11.9514 76.4086 11.2657 76.6129 10.58 76.82C10.0342 77.0131 9.33733 77.0775 8.79157 77.2706C7.26903 77.5561 5.60655 77.8555 3.6642 78.1802C1.16488 78.558 -1.20848 78.7847 -3.59585 78.8715C-3.72179 79.0226 -3.86173 79.0366 -4.00167 79.0506C-4.54743 79.2437 -5.27232 79.031 -5.73132 78.6532C-6.17632 78.4125 -6.50938 77.8807 -6.7025 77.3378C-6.75567 76.778 -6.93479 76.375 -6.98797 75.8152C-6.99917 75.6753 -6.99917 75.6753 -7.01316 75.5353C-7.40499 72.8989 -7.65688 70.2484 -8.0627 67.472C-8.04871 67.612 -8.04871 67.612 -8.03472 67.7519C-8.10189 67.055 -8.15506 66.4981 -8.20824 65.9383C-8.33978 64.5445 -8.32019 63.2739 -8.45174 61.8801C-8.55809 60.7634 -8.67844 59.5095 -8.79599 58.2528C-9.03668 55.7423 -9.27458 53.2318 -9.51247 50.7213C-9.75317 48.2108 -9.97707 45.8402 -10.215 43.3297L-10.229 43.1898C-10.4809 40.5393 -10.8587 38.0428 -11.0994 35.5295C-11.2169 34.2757 -11.3513 32.8819 -11.4688 31.6252C-11.522 31.0683 -11.5752 30.5085 -11.6284 29.9516C-11.6423 29.8116 -11.6675 29.5317 -11.6815 29.3946C-11.7487 28.6949 -11.8019 28.1379 -11.8551 27.581C-12.4848 22.4312 -13.1005 17.4242 -13.719 12.4172C-13.7051 12.5543 -13.7051 12.5543 -13.6911 12.6943C-13.9961 9.48685 -13.8954 6.10032 -14.2004 2.89011C-14.2144 2.75297 -14.2144 2.75297 -14.2284 2.61303C-13.9625 2.44511 -13.6967 2.27998 -13.4168 2.25479C-13.1509 2.08686 -13.011 2.07567 -12.7311 2.04768C-9.83993 1.35078 -6.90681 1.07091 -3.95969 0.933765C-2.98291 0.838606 -2.00614 0.746246 -1.02936 0.653887C-0.469605 0.600709 0.0901517 0.547532 0.647109 0.494356C0.926987 0.469166 1.06693 0.455173 1.34681 0.427185C1.63788 0.541935 1.91776 0.513947 2.22282 0.765838C2.79657 0.8526 3.25278 1.23044 3.44589 1.7762Z" fill="#ED3237"/>
<path d="M1054.14 129.94C1053.86 127.986 1053.72 125.978 1053.65 123.913C1053.68 122.121 1053.79 120.337 1054.03 118.499C1054.33 116.667 1054.78 114.783 1055.35 113.043C1056.2 110.398 1057.3 107.911 1058.52 105.569C1058.45 105.563 1058.44 105.628 1058.44 105.694C1058.44 105.628 1058.45 105.563 1058.52 105.504C1058.52 105.504 1058.52 105.504 1058.53 105.438L1058.52 105.504C1058.93 104.678 1059.42 103.794 1059.9 102.976C1060.38 102.091 1060.93 101.213 1061.35 100.322C1061.59 99.8797 1061.83 99.4384 1062.07 98.9957C1062.67 97.591 1063.2 96.1797 1063.54 94.6838C1064.01 92.6012 1064.07 90.5463 1063.85 88.6646C1063.78 87.2638 1063.51 85.9741 1063.23 84.6857C1063.18 84.5469 1063.18 84.4822 1063.13 84.3434C1063.12 84.4095 1063.19 84.4161 1063.18 84.4822C1063.19 84.4161 1063.13 84.3434 1063.14 84.2773L1063.14 84.2113C1063.14 84.2113 1063.14 84.2113 1063.14 84.2773C1063.05 83.7382 1062.98 83.133 1062.9 82.5938C1062.87 82.1921 1062.78 81.7851 1062.81 81.39C1062.8 80.79 1062.85 80.2641 1062.91 79.6708C1063.05 78.8871 1063.26 78.1088 1063.46 77.3965C1063.84 76.1716 1064.35 75.0232 1064.85 73.941C1065.01 73.6899 1065.17 73.3741 1065.39 73.1283C1065.56 72.8124 1065.71 72.5614 1065.87 72.3103C1065.88 72.2442 1065.95 72.1847 1065.96 72.1187C1065.89 72.1121 1065.82 72.1068 1065.76 72.0341C1065.06 71.7024 1064.44 71.2439 1063.81 70.8527C1063.65 71.1685 1063.49 71.4196 1063.33 71.7368C1063.01 72.3037 1062.69 72.8719 1062.44 73.4454C1062.01 74.4021 1061.66 75.2994 1061.37 76.268C1061.08 77.238 1060.85 78.2132 1060.7 79.129C1060.59 79.5835 1060.54 80.0447 1060.5 80.5046C1060.45 81.0319 1060.47 81.5657 1060.48 82.0983C1060.46 82.2965 1060.51 82.5 1060.49 82.6969C1060.54 83.5664 1060.66 84.3751 1060.79 85.1178C1060.87 85.723 1060.95 86.2635 1061.09 86.874C1061.3 88.2232 1061.57 89.5777 1061.63 91.0458C1061.63 91.7766 1061.56 92.5007 1061.42 93.2844C1061.35 93.9438 1061.16 94.5899 1060.97 95.1701C1060.59 96.3303 1060.09 97.4126 1059.6 98.4274C1058.95 99.6286 1058.3 100.83 1057.66 102.031C1056.92 103.49 1056.24 105.02 1055.56 106.55C1054.27 109.617 1053.24 112.842 1052.4 116.085C1052.05 117.647 1051.83 119.22 1051.69 120.736C1051.54 122.317 1051.59 123.85 1051.65 125.318C1051.78 128.187 1052.19 130.884 1052.24 133.813C1052.24 133.813 1052.23 133.879 1052.23 133.945C1052.23 135.275 1052.17 136.664 1052.04 138.047C1051.93 139.166 1051.82 140.352 1051.65 141.466C1051.46 142.711 1051.22 143.883 1050.97 145.122C1050.73 146.23 1050.48 147.402 1050.17 148.569C1050.07 148.891 1049.98 149.215 1049.87 149.603C1049.76 150.058 1049.73 150.453 1049.75 150.921C1049.78 151.322 1050 151.743 1050.25 151.899C1050.51 152.056 1050.84 152.022 1051.19 151.855C1051.39 151.807 1051.6 151.695 1051.76 151.444C1051.92 151.193 1052.02 150.871 1052.05 150.542C1052.81 148.089 1053.57 145.702 1054.08 143.159C1054.58 140.681 1054.67 138.297 1054.64 135.901C1054.59 135.698 1054.61 135.501 1054.62 135.369C1054.55 133.967 1054.42 132.558 1054.28 131.217C1054.19 130.808 1054.17 130.342 1054.14 129.94Z" fill="#00A859"/>
<path d="M1055 119.456C1054.7 120.556 1054.53 121.604 1054.3 122.646C1054.13 123.692 1053.97 124.674 1053.81 125.656C1053.79 125.854 1053.78 125.985 1053.84 126.124C1053.99 125.939 1054.14 125.754 1054.23 125.496C1054.45 125.251 1054.67 125.007 1054.83 124.756C1054.85 124.558 1054.94 124.301 1054.97 124.037C1054.98 123.84 1055 123.642 1055.09 123.452C1055 123.642 1054.98 123.84 1054.96 124.103C1054.94 124.301 1054.92 124.498 1054.91 124.63C1054.97 124.637 1055.05 124.577 1055.05 124.511C1055.2 124.392 1055.4 124.345 1055.52 124.489C1055.64 124.633 1055.76 124.777 1055.88 124.922C1055.89 124.856 1055.83 124.784 1055.83 124.718C1055.93 123.73 1056.01 122.808 1056.24 121.833C1056.17 121.892 1056.16 121.958 1056.16 121.958C1056.17 121.892 1056.17 121.892 1056.24 121.833C1056.52 120.264 1056.94 118.643 1057.42 117.16C1057.42 117.16 1057.42 117.16 1057.42 117.094C1057.43 117.028 1057.43 116.962 1057.44 116.896C1057.43 116.962 1057.43 116.962 1057.43 117.028C1057.99 115.354 1058.54 113.744 1059.22 112.214C1059.96 110.69 1060.76 109.304 1061.55 107.984C1061.55 107.918 1061.55 107.918 1061.56 107.852C1061.63 107.858 1061.63 107.858 1061.63 107.792C1062.11 106.973 1062.59 106.155 1063.07 105.271C1063.78 104.141 1064.36 102.935 1064.95 101.595C1065.45 100.579 1065.89 99.425 1066.26 98.2648C1066.81 96.7213 1067.3 95.1065 1067.65 93.4785C1067.94 92.5759 1068.16 91.6007 1068.31 90.6849C1068.88 88.2786 1069.25 85.7889 1069.48 83.3522C1069.6 82.0347 1069.66 80.7119 1069.65 79.4473C1069.65 78.0518 1069.65 76.6564 1069.58 75.3204C1069.5 73.9844 1069.37 72.6418 1069.15 71.36C1069 70.2156 1068.7 69.1241 1068.32 68.2242C1068.22 67.882 1067.87 68.0485 1067.7 68.4304C1067.63 68.4898 1067.63 68.4898 1067.62 68.5559C1067.55 68.6154 1067.41 68.6695 1067.34 68.7951C1067.11 69.0395 1066.89 69.284 1066.66 69.5946C1066.58 69.7862 1066.43 69.9051 1066.41 70.1681C1066.32 70.4257 1066.29 70.6887 1066.34 70.8261C1066.34 70.8261 1066.34 70.8261 1066.34 70.8922C1066.33 71.0244 1066.31 71.1565 1066.37 71.2939C1066.55 72.84 1067.11 73.9567 1067.3 75.4367C1067.38 76.7727 1067.37 78.2342 1067.3 79.6891C1067.17 82.4681 1066.75 85.4189 1066.21 88.2918C1065.96 89.53 1065.72 90.7034 1065.47 91.9416C1065.21 93.2472 1064.88 94.6109 1064.49 95.9033C1063.66 98.3493 1062.78 100.592 1061.71 102.816C1060.87 104.597 1060.04 106.378 1059.13 108.219C1058.8 108.918 1058.46 109.683 1058.12 110.449C1057.61 111.597 1057.11 112.678 1056.66 113.899C1056.02 115.699 1055.45 117.571 1055 119.456Z" fill="#00AFEF"/>
<path d="M1074.13 140.812C1074.15 140.549 1074.03 140.403 1073.98 140.266C1073.87 140.056 1073.81 139.983 1073.68 139.905C1073.42 139.88 1073.15 139.855 1072.9 139.764C1072.11 139.624 1071.28 139.277 1070.59 138.88C1062.84 132.229 1060.6 111.682 1066.68 96.7095C1068.85 91.3999 1068.9 84.5601 1066.93 80.7186C1066.46 79.4104 1066.2 77.9898 1065.94 76.4371C1065.75 74.9571 1065.7 73.4242 1065.64 71.89C1065.61 70.8897 1065.57 69.8894 1065.46 68.9485C1065.33 67.4751 1065.18 66.2633 1064.95 65.2445C1064.91 64.9088 1064.8 64.6326 1064.7 64.2917C1064.55 64.4767 1064.4 64.6617 1064.26 64.7806C1064.19 64.774 1064.13 64.7027 1064 64.6894C1064.11 65.6303 1064.21 66.6373 1064.25 67.6376C1064.35 69.4414 1064.37 71.3033 1064.18 73.2789C1064.06 74.5303 1063.87 75.8412 1063.68 77.152C1063.78 78.9558 1063.95 80.6341 1064.13 82.1802C1064.41 84.1333 1064.06 135.403 1064.69 137.256C1065.31 139.11 1066.15 140.718 1067.16 142.01C1067.87 142.942 1068.6 143.675 1069.42 144.152C1069.93 144.399 1070.38 144.575 1070.83 144.685C1071.35 144.801 1071.88 144.851 1072.42 144.769C1072.49 144.71 1072.64 144.591 1072.79 144.406C1072.8 144.274 1072.87 144.214 1072.89 144.082C1073.26 142.988 1073.7 141.834 1074.13 140.812C1074.3 140.362 1073.82 141.978 1073.99 141.529C1074.08 141.273 1074.11 141.009 1074.13 140.812Z" fill="#F4BA15"/>
<path d="M1052.1 133.932C1051.76 135.362 1051.43 136.727 1051.04 138.084C1050.64 139.442 1050.25 140.735 1049.86 142.026C1049.78 142.218 1049.69 142.409 1049.55 142.528C1049.51 142.192 1049.48 141.857 1049.44 141.521C1049.35 141.114 1049.25 140.772 1049.22 140.37C1049.32 140.048 1049.42 139.659 1049.52 139.335C1049.61 139.079 1049.63 138.881 1049.72 138.623C1049.63 138.881 1049.54 139.139 1049.45 139.395C1049.36 139.653 1049.26 139.91 1049.17 140.167C1049.12 140.029 1049.13 139.963 1049.13 139.897C1049.02 139.687 1048.78 139.465 1048.57 139.577C1048.42 139.696 1048.21 139.81 1048 139.922C1048.08 139.797 1048.08 139.731 1048.16 139.671C1048.6 138.517 1048.98 137.291 1049.36 136.065C1049.36 136.131 1049.35 136.197 1049.35 136.262C1049.35 136.197 1049.36 136.065 1049.37 135.999C1049.96 133.995 1050.43 131.847 1050.76 129.752C1050.76 129.817 1050.76 129.817 1050.76 129.817L1050.76 129.752C1050.77 129.686 1050.78 129.554 1050.79 129.488C1050.78 129.554 1050.78 129.554 1050.77 129.62C1051.12 127.393 1051.47 125.101 1051.55 122.915C1051.63 120.663 1051.56 118.597 1051.43 116.457L1051.43 116.392C1051.44 116.326 1051.44 116.326 1051.45 116.26C1051.37 114.99 1051.29 113.72 1051.28 112.456C1051.18 110.653 1051.22 108.863 1051.26 107.006C1051.41 105.426 1051.56 103.844 1051.78 102.27C1052.05 100.103 1052.46 97.8829 1052.93 95.7342C1053.25 94.5013 1053.5 93.2631 1053.81 92.0962C1054.65 88.8534 1055.68 85.6951 1056.76 82.7417C1057.45 81.0793 1058.14 79.483 1058.81 77.9527C1059.64 76.2375 1060.46 74.6531 1061.34 73.0753C1062.16 71.4922 1063.1 69.987 1064.03 68.6127C1064.88 67.3639 1065.78 66.2539 1066.73 65.3474C1067.03 64.9774 1067.32 65.4042 1067.34 66.0028C1067.34 66.0028 1067.33 66.0689 1067.32 66.135C1067.38 66.2724 1067.5 66.4178 1067.54 66.6213C1067.64 66.9635 1067.73 67.4366 1067.82 67.9097C1067.86 68.1793 1067.83 68.4436 1067.73 68.8321C1067.71 69.095 1067.54 69.4122 1067.39 69.5972C1067.31 69.7888 1067.22 69.9804 1067.15 70.106C1066.05 71.8622 1064.82 72.8744 1063.73 74.5645C1062.85 76.0763 1062.02 77.7928 1061.25 79.5794C1059.87 82.9703 1058.65 86.7087 1057.56 90.4589C1057.08 92.009 1056.66 93.5644 1056.24 95.1858C1055.81 96.938 1055.44 98.6982 1055.14 100.53C1054.56 103.798 1054.32 107.03 1054.22 110.211C1054.09 112.924 1054.05 115.511 1053.99 118.163C1053.96 119.224 1053.85 120.344 1053.82 121.403C1053.73 123.056 1053.64 124.708 1053.42 126.35C1053.11 128.846 1052.66 131.461 1052.1 133.932Z" fill="#D82A2B"/>
<path d="M1060.09 72.2256C1060.41 70.994 1060.66 69.7545 1060.91 68.5163C1061.01 68.1264 1061.12 67.6719 1061.23 67.2173C1061.53 66.1826 1061.76 65.1413 1061.93 64.0934C1062.17 62.9212 1062.35 61.8073 1062.58 60.6999C1062.73 59.8502 1062.88 59.0005 1063.02 58.1508C1063.26 57.0434 1063.44 55.9308 1063.68 54.8234C1063.69 54.6912 1063.77 54.501 1063.78 54.3688C1063.86 54.2433 1063.87 54.1772 1063.88 54.0451C1064.04 53.0645 1064.21 52.0166 1064.37 51.0348C1064.38 50.9026 1064.46 50.7124 1064.48 50.5802C1064.29 50.4956 1064.1 50.345 1063.92 50.1943C1063.23 49.7305 1062.49 49.1279 1061.81 48.532C1061.5 48.3033 1061.2 48.0087 1060.89 47.714C1059.89 47.0215 1059.09 46.4124 1058.34 45.8111C1056.54 44.4434 1055.14 43.114 1054.01 41.6776C1053.7 41.449 1053.33 41.1477 1052.96 40.9125C1052.9 40.8398 1052.77 40.7618 1052.71 40.6891C1052.71 40.6891 1052.7 40.7552 1052.7 40.8213C1052.66 41.2164 1052.75 41.6247 1052.86 41.9657C1052.89 42.3013 1052.99 42.6436 1053.16 42.9264C1053.45 44.0826 1053.68 45.1675 1053.98 46.2591C1054.2 47.41 1054.42 48.6271 1054.64 49.7781L1054.63 49.8442C1055.02 52.0734 1055.39 54.4349 1055.9 57.4742L1056.11 58.8221C1056.38 60.9073 1056.72 62.9345 1057.06 64.9602C1057.27 66.176 1057.49 67.393 1057.7 68.6762L1057.78 69.2153C1058.02 70.2341 1058.25 71.3191 1058.48 72.4053C1058.53 72.5427 1058.59 72.6154 1058.64 72.7528C1059.14 73.1321 1059.64 73.4453 1060.14 73.7598C1060.21 73.7651 1060.21 73.7651 1060.21 73.7651C1060.22 73.7003 1060.22 73.7003 1060.22 73.6342C1060.16 73.6276 1060.03 73.5497 1059.9 73.5365C1060.01 73.0819 1060.05 72.6207 1060.09 72.2256Z" fill="#EC268F"/>
<path d="M1075.26 17.6471C1075.26 17.6471 1075.26 17.6471 1075.19 17.6418L1075.26 17.6471ZM1054.01 41.6777C1055.14 43.1141 1056.54 44.4435 1058.34 45.8112C1059.09 46.4124 1059.89 47.0216 1060.89 47.7141C1061.2 48.0087 1061.5 48.3034 1061.81 48.532C1062.49 49.128 1063.23 49.7306 1063.92 50.1944C1064.1 50.3451 1064.29 50.4957 1064.48 50.5803L1064.48 50.5142C1064.56 50.3887 1064.64 50.2631 1064.79 50.1442C1064.79 50.1442 1064.79 50.1442 1064.79 50.0781C1064.86 50.0187 1064.86 50.0187 1064.87 49.9526C1065.42 48.3444 1065.91 46.6635 1066.39 45.1134C1066.69 44.0787 1067.06 43.0507 1067.35 42.0807C1067.64 41.046 1068 40.084 1068.36 39.1207L1068.74 37.9604C1069.2 36.6086 1069.66 35.2567 1070.06 33.8996C1070.33 33.1279 1070.6 32.3562 1070.81 31.5778L1071.38 29.7714C1071.83 28.4856 1072.23 27.1285 1072.62 25.77L1072.84 24.927C1073.46 22.5933 1074.16 20.1341 1075.17 17.8387C1075.27 17.581 1075.48 17.4026 1075.75 17.3617C1075.9 17.2427 1076.03 17.2559 1076.17 17.2018C1076.1 17.1965 1076.1 17.1965 1076.03 17.1899C1075.84 17.1714 1075.7 17.1581 1075.57 17.1463C1075.24 17.1145 1074.91 17.0828 1074.52 17.0458C1074.52 17.0458 1074.52 17.0458 1074.45 17.0392L1074.39 17.0326C1074.33 16.9613 1074.25 17.0207 1074.18 17.0802C1074.04 17.1991 1073.96 17.3247 1073.81 17.5097C1073.74 17.5691 1073.6 17.622 1073.59 17.6881C1070.41 21.7713 1066.61 25.3313 1062.96 28.7063C1059.67 31.8487 1056.24 35.044 1053.23 38.6793C1053.23 38.7454 1053.15 38.8048 1053.15 38.8709C1053 38.9898 1052.86 39.1088 1052.84 39.307C1052.78 39.3004 1052.7 39.3598 1052.7 39.4259C1052.46 39.8025 1052.48 40.3351 1052.71 40.6892C1052.77 40.7619 1052.9 40.8399 1052.96 40.9126C1053.33 41.1478 1053.7 41.4491 1054.01 41.6777Z" fill="#00AFEF"/>
<path d="M1068.18 75.3204C1068.18 75.3204 1068.17 75.3865 1068.11 75.3799C1068.11 75.3799 1068.11 75.3138 1068.18 75.3204ZM1093.01 49.9697C1092.86 50.0886 1092.73 50.1428 1092.52 50.189C1090.55 50.6 1088.56 51.2753 1086.64 51.8897C1084.44 52.6113 1082.24 53.3328 1079.95 53.712C1079.05 55.422 1078.1 56.9932 1077.15 58.6291C1076.53 59.5674 1075.9 60.5717 1075.34 61.5813C1074.78 62.5909 1074.22 63.6004 1073.65 64.6761C1073.4 65.1849 1073.09 65.6857 1072.84 66.1945C1072.13 67.389 1071.41 68.5836 1070.76 69.8509C1070.2 70.8605 1067.95 72.84 1067.54 73.6646C1067.36 74.1139 1067.19 74.5619 1067.01 75.0098C1067.14 75.0231 1067.27 75.101 1067.32 75.2398C1067.87 76.4212 1068.79 76.5744 1069.12 76.6062C1069.52 76.6445 1069.29 76.2243 1070.35 75.5279C1070.42 75.5331 1072.99 73.7175 1074.27 72.178C1074.86 71.504 1075.47 70.764 1076.06 70.0888C1077.19 68.7343 1078.38 67.3851 1079.51 66.0306C1080.1 65.4227 1080.63 64.7422 1081.22 64.133C1081.59 63.7035 1081.9 63.2674 1082.27 62.838C1082.65 62.4085 1083.01 62.1098 1083.37 61.7464C1085.94 59.2 1088.52 56.6536 1090.84 53.8838C1091.6 52.8927 1092.36 51.9016 1092.99 50.8326C1093.16 50.4494 1093.33 50.0675 1093.44 49.679C1093.36 49.7384 1093.29 49.7979 1093.22 49.8574C1093.15 49.9168 1093.08 49.9102 1093.01 49.9697Z" fill="#F58634"/>
<path d="M1083.28 22.8627C1082.99 25.2267 1082.7 27.5908 1082.4 30.0223C1082.37 30.2853 1082.35 30.5482 1082.32 30.8786C1082.31 30.9433 1082.3 31.0755 1082.29 31.1416C1082.27 31.4045 1082.24 31.6688 1082.22 31.9318C1082.16 32.5251 1082.1 33.1832 1082.04 33.7752C1081.93 34.9619 1081.75 36.1406 1081.63 37.392L1081.62 37.4581C1081.51 38.6434 1081.41 39.7627 1081.29 40.948C1081.18 42.1334 1081.07 43.3187 1080.95 44.5041C1080.9 45.0974 1080.84 45.6894 1080.79 46.2167C1080.73 46.8747 1080.74 47.4747 1080.68 48.1328C1080.65 48.3971 1080.63 48.66 1080.59 48.9891C1080.6 48.923 1080.6 48.923 1080.61 48.8569C1080.42 50.1678 1080.3 51.4192 1080.11 52.664C1080.11 52.7301 1080.11 52.7301 1080.1 52.7962C1080.08 53.0605 1080.04 53.3895 1080.02 53.6525L1079.95 53.7119C1082.24 53.3327 1084.44 52.6112 1086.64 51.8897C1088.56 51.2752 1090.55 50.5999 1092.52 50.1889C1092.73 50.1427 1092.86 50.0885 1093.01 49.9696C1093.08 49.9101 1093.15 49.9167 1093.22 49.8573C1093.29 49.7978 1093.36 49.7383 1093.44 49.6789C1093.58 49.5586 1093.72 49.4397 1093.74 49.2428C1093.84 48.919 1093.8 48.6495 1093.69 48.3733C1093.59 48.0323 1093.49 47.6901 1093.33 47.3425C1093.18 46.7968 1092.97 46.1783 1092.76 45.626C1091.99 43.1615 1091.36 40.7089 1090.87 38.8681C1090.35 36.6916 1089.72 34.1743 1089.16 31.6622C1089.03 30.9182 1088.84 30.169 1088.71 29.4263C1088.33 27.7943 1088.03 26.1042 1087.58 24.4682C1087.5 23.9938 1087.41 23.5207 1087.31 23.1124C1087 21.5544 1086.61 19.9898 1085.95 18.597C1085.68 18.5719 1085.42 18.5468 1085.16 18.5217C1084.76 18.4847 1084.3 18.4398 1083.9 18.4028C1083.77 18.3895 1083.64 18.3777 1083.51 18.3644C1083.36 19.8801 1083.41 21.4791 1083.27 22.9935C1083.27 22.9274 1083.27 22.9274 1083.28 22.8627Z" fill="#FFF212"/>
<path d="M1060.86 73.8947C1061.5 74.2197 1062.2 74.5527 1062.84 74.8131L1062.9 74.8197C1062.97 74.825 1063.03 74.8976 1063.1 74.9043C1063.35 74.9954 1063.61 75.0853 1063.87 75.1765C1064.57 75.4434 1065.29 75.6443 1066 75.8451L1066.07 75.8504C1066.26 75.8702 1066.4 75.8821 1066.59 75.9006C1066.79 75.9205 1067.05 76.0103 1067.25 75.9641C1067.52 75.9892 1067.8 75.8161 1067.94 75.6971C1068.02 75.6377 1068.02 75.5716 1068.03 75.5055C1068.1 75.4461 1068.1 75.4461 1068.11 75.38C1068.26 75.1289 1068.43 74.8131 1068.58 74.562C1068.68 74.3043 1068.76 74.1127 1068.84 73.9224C1069.02 73.4731 1069.2 73.0252 1069.37 72.5772C1069.79 71.6865 1070.2 70.8606 1070.76 69.851C1071.41 68.5838 1072.13 67.3892 1072.84 66.1946C1073.09 65.6858 1073.4 65.185 1073.65 64.6762C1074.22 63.6006 1074.78 62.591 1075.34 61.5814C1075.9 60.5718 1076.53 59.5675 1077.15 58.6293C1078.1 56.9933 1079.05 55.4221 1079.95 53.7121L1080.02 53.6527C1080.04 53.3897 1080.08 53.0607 1080.1 52.7964C1080.08 53.0607 1079.99 53.251 1079.97 53.5152C1079.87 53.7716 1079.72 54.0227 1079.51 54.1363C1079.29 54.3147 1078.95 54.4152 1078.69 54.324C1078.62 54.3174 1078.56 54.3108 1078.5 54.2394C1077.37 54.1984 1076.25 54.0914 1075.07 53.913C1074.15 53.7597 1073.37 53.6183 1072.65 53.4835C1072.39 53.3924 1072.06 53.362 1071.81 53.2708C1071.48 53.173 1071.16 53.0765 1070.83 52.9787L1070.06 52.7726L1069.86 52.688C1069.54 52.5902 1069.22 52.4924 1068.95 52.4673C1068.76 52.3828 1068.63 52.3709 1068.5 52.3577C1068.24 52.3325 1067.97 52.3088 1067.64 52.277C1067.38 52.2519 1067.06 52.1542 1066.79 52.129C1066.66 52.1172 1066.59 52.1105 1066.53 52.1039C1066.07 51.9943 1065.62 51.8185 1065.18 51.578C1064.99 51.4934 1064.82 51.2106 1064.71 50.9345C1064.67 50.6649 1064.69 50.4019 1064.78 50.1442C1064.64 50.2632 1064.56 50.3887 1064.48 50.5142L1064.48 50.5803C1064.46 50.7125 1064.38 50.9027 1064.37 51.0349C1064.21 52.0167 1064.04 53.0646 1063.88 54.0451C1063.87 54.1773 1063.86 54.2434 1063.78 54.3689C1063.77 54.5011 1063.69 54.6913 1063.67 54.8235C1063.44 55.9309 1063.26 57.0435 1063.02 58.1509C1062.88 59.0006 1062.73 59.8503 1062.58 60.7C1062.35 61.8074 1062.17 62.9213 1061.93 64.0935C1061.76 65.1414 1061.53 66.1827 1061.23 67.2174C1061.12 67.672 1061.01 68.1265 1060.91 68.5164C1060.66 69.7546 1060.41 70.9941 1060.09 72.2257C1060.05 72.6208 1060.01 73.082 1059.9 73.5366C1060.03 73.5498 1060.16 73.6277 1060.22 73.6343C1060.28 73.7057 1060.35 73.7123 1060.41 73.7189C1060.54 73.7969 1060.67 73.8101 1060.8 73.8881L1060.86 73.8947Z" fill="#A5BA46"/>
<path d="M1075.17 17.8387C1074.16 20.134 1073.46 22.5932 1072.84 24.9269L1072.62 25.77C1072.23 27.1285 1071.83 28.4856 1071.38 29.7714L1070.81 31.5778C1070.6 32.3561 1070.33 33.1278 1070.06 33.8996C1069.66 35.2567 1069.2 36.6085 1068.74 37.9604L1068.36 39.1206C1068 40.084 1067.64 41.046 1067.35 42.0807C1067.06 43.0506 1066.69 44.0787 1066.39 45.1134C1065.91 46.6635 1065.42 48.3444 1064.87 49.9526C1064.86 50.0186 1064.86 50.0186 1064.79 50.0781C1064.79 50.1442 1064.79 50.1442 1064.79 50.1442C1064.69 50.4019 1064.67 50.6648 1064.71 50.9344C1064.82 51.2106 1064.99 51.4934 1065.18 51.5779C1065.62 51.8185 1066.07 51.9942 1066.53 52.1039C1066.59 52.1105 1066.66 52.1171 1066.79 52.129C1067.06 52.1541 1067.38 52.2519 1067.64 52.277C1067.97 52.3087 1068.24 52.3325 1068.5 52.3576C1068.63 52.3708 1068.76 52.3827 1068.95 52.4673C1069.22 52.4924 1069.54 52.5902 1069.86 52.688L1070.06 52.7725L1070.83 52.9787C1071.16 53.0765 1071.48 53.1729 1071.81 53.2707C1072.06 53.3619 1072.39 53.3923 1072.65 53.4835C1073.37 53.6183 1074.15 53.7597 1075.07 53.9129C1076.25 54.0913 1077.37 54.1984 1078.5 54.2393C1078.56 54.3107 1078.62 54.3173 1078.69 54.3239C1078.95 54.4151 1079.29 54.3147 1079.51 54.1363C1079.72 54.0226 1079.87 53.7716 1079.97 53.5152C1079.99 53.2509 1080.08 53.0606 1080.1 52.7963C1080.11 52.7303 1080.11 52.7303 1080.11 52.6642C1080.3 51.4194 1080.42 50.168 1080.61 48.8571C1080.6 48.9232 1080.6 48.9232 1080.59 48.9892C1080.63 48.6602 1080.65 48.3972 1080.68 48.1329C1080.74 47.4748 1080.73 46.8749 1080.79 46.2168C1080.84 45.6896 1080.9 45.0976 1080.95 44.5042C1081.07 43.3189 1081.18 42.1335 1081.29 40.9482C1081.41 39.7629 1081.51 38.6436 1081.62 37.4582L1081.63 37.3922C1081.75 36.1408 1081.93 34.962 1082.04 33.7754C1082.1 33.1833 1082.16 32.5253 1082.22 31.9319C1082.24 31.669 1082.27 31.4047 1082.29 31.1417C1082.3 31.0756 1082.31 30.9435 1082.32 30.8787C1082.35 30.5484 1082.37 30.2854 1082.4 30.0224C1082.7 27.591 1082.99 25.2269 1083.28 22.8628C1083.27 22.9276 1083.27 22.9276 1083.27 22.9936C1083.41 21.4793 1083.36 19.8803 1083.51 18.3646C1083.51 18.2998 1083.51 18.2998 1083.52 18.2338C1083.39 18.1545 1083.27 18.0765 1083.14 18.0646C1083.01 17.9853 1082.94 17.9801 1082.81 17.9668C1081.45 17.6378 1080.06 17.5057 1078.67 17.4409C1078.21 17.396 1077.75 17.3524 1077.29 17.3088C1077.02 17.2837 1076.76 17.2585 1076.5 17.2334C1076.36 17.2215 1076.3 17.2149 1076.17 17.2017C1076.03 17.2559 1075.9 17.2427 1075.75 17.3616C1075.48 17.4026 1075.27 17.581 1075.17 17.8387Z" fill="#ED3237"/>
</svg>
