<svg width="1080" height="215" viewBox="0 0 1080 215" fill="none" xmlns="http://www.w3.org/2000/svg">
<path d="M0 12.402V132.904C23.0858 126.712 41.9834 107.864 52.4895 86.0762C58.1803 97.5822 75.3407 101.253 85.2463 93.088C76.0399 114.204 97.417 139.653 120.426 139.415C143.437 139.174 162.855 119.618 169.608 97.5928C170.433 109.298 189.011 114.218 195.523 104.458C194.465 125.765 216.679 143.949 237.838 141.407C258.999 138.861 275.7 118.872 277.601 97.6249C279.498 76.3769 268.357 55.2558 251.711 41.9435C264.586 42.8836 277.538 34.0322 281.353 21.6828C283.555 14.564 282.578 6.69768 279.231 0.0623987C291.211 7.8632 308.202 8.54825 319.82 0H3.3231L0 12.402Z" fill="#E5E7EA"/>
<path fill-rule="evenodd" clip-rule="evenodd" d="M715.7 50.9803C715.777 48.2735 715.557 45.6339 715.161 43.1529C714.505 42.973 713.844 42.812 713.179 42.6692C718.089 43.7205 722.76 45.7462 726.789 48.8189C739.638 58.6201 743.933 78.5064 735.289 92.1669C726.641 105.827 705.724 110.145 693.006 100.166C696.266 118.453 695.346 138.488 685.023 153.925C674.701 169.363 653.008 178.019 636.602 169.32C615.886 158.342 615.657 126.262 631.007 108.5C622.178 117.494 607.354 120.126 596.045 114.445C593.849 113.338 591.823 111.935 590 110.306V109.291L588.957 112.29C586.756 113.21 584.44 113.858 582.063 114.177C569.828 115.801 557.027 108.625 551.787 97.4954C560.216 118.808 549.705 148.352 527.11 151.856C509.214 154.635 492.024 139.699 487.478 122.142C482.931 104.585 488.516 85.7935 497.389 69.9535C494.767 70.8576 492.053 71.2725 489.342 71.2586C487.932 81.6192 479.894 89.6023 469.645 88.6826C455.967 87.4535 453.273 73.1809 457.374 69.2573C452.835 72.1079 447.463 74.2788 442.208 73.248C436.953 72.2206 432.322 66.9168 433.665 61.73C434.863 57.1147 439.8 54.6799 444.229 52.9208C438.02 51.3362 433.559 44.6768 434.458 38.3327C435.354 31.9844 441.485 26.823 447.89 27.0195C454.226 27.214 459.971 32.6334 460.578 38.9354C460.593 38.8192 460.609 38.703 460.626 38.5869C460.958 33.3837 462.693 28.1194 466.277 24.389C470.291 18.5715 476.067 13.9441 482.774 11.7337C488.827 9.73906 495.304 9.69177 501.46 11.174C499.433 10.6885 497.372 10.3625 495.298 10.2251C495.148 10.505 495 10.7883 494.853 11.0749C496.93 11.2143 499.003 11.5408 501.037 12.0292C501.142 12.0567 501.252 12.0819 501.362 12.1069C503.252 12.5802 505.108 13.2037 506.911 13.9535C507.004 13.9924 507.097 14.0303 507.19 14.0684C507.278 14.1044 507.367 14.1407 507.457 14.1783C507.956 14.3958 508.451 14.6291 508.94 14.8648C509.213 14.9965 509.483 15.135 509.757 15.275L509.759 15.276L509.761 15.2768L509.819 15.3066L509.82 15.3074C510.263 15.5355 510.705 15.7639 511.142 16.0076C511.796 16.3752 512.435 16.7597 513.067 17.1637C513.285 17.305 513.498 17.4529 513.71 17.6004L513.723 17.6094L513.73 17.6145L513.843 17.6929C513.898 17.7308 513.953 17.7687 514.008 17.8063C514.43 18.0935 514.85 18.3886 515.258 18.6927C515.555 18.914 515.846 19.138 516.133 19.3605C516.615 19.7429 517.089 20.1356 517.549 20.5412C517.616 20.5983 517.683 20.6546 517.751 20.711L517.753 20.7129L517.754 20.7138C517.878 20.8168 518.001 20.9202 518.121 21.0295C518.753 21.5998 519.358 22.196 519.949 22.8089C520.066 22.9309 520.179 23.0552 520.292 23.1795L520.293 23.1807L520.294 23.1824L520.295 23.1831C520.351 23.2453 520.408 23.3079 520.465 23.3698C520.912 23.8538 521.346 24.3468 521.766 24.8566L521.814 24.9149L521.887 25.0023L521.905 25.0247C522.026 25.1701 522.146 25.3149 522.262 25.4631C522.811 26.158 523.339 26.8631 523.835 27.5966C523.631 23.66 524.405 19.7432 525.938 16.13C526.554 14.6874 527.289 13.2948 528.133 11.9665C531.746 6.26852 537.348 1.80325 543.856 0H557.357C565.448 2.09591 572.688 7.75581 576.028 15.4466C576.25 13.0781 576.821 10.8923 577.683 8.89517C578.115 7.89267 578.616 6.94479 579.176 6.03962C580.022 4.68127 581.011 3.42963 582.109 2.29077C582.897 1.46995 583.745 0.706252 584.64 0H628.897C629.813 0.974023 630.663 2.00991 631.439 3.10054C632.376 4.42378 633.198 5.82761 633.872 7.29929C634.551 8.77098 635.085 10.3148 635.445 11.9137C635.682 12.9782 635.848 14.064 635.928 15.1794C636.089 17.4018 635.907 19.7089 635.326 22.0755C644.068 12.5626 659.8 10.4802 670.716 17.389C676.854 21.2782 681.077 27.7629 682.73 34.8245C683.099 36.3937 683.341 37.9884 683.451 39.5915C683.718 43.6037 683.15 47.654 681.632 51.3947C682.357 50.8518 683.103 50.3471 683.866 49.8594C683.896 49.8404 683.925 49.8216 683.955 49.8028C683.984 49.7849 684.012 49.767 684.041 49.7493C684.146 49.6841 684.251 49.6201 684.357 49.5559L684.358 49.5553L684.465 49.4908L684.549 49.4395C685.125 49.0875 685.71 48.7567 686.304 48.4386C686.337 48.4205 686.371 48.4023 686.405 48.384L686.532 48.3147C686.683 48.2317 686.835 48.1488 686.99 48.0696C687.766 47.6752 688.551 47.302 689.352 46.9627C689.506 46.8967 689.661 46.8379 689.816 46.7792L689.928 46.737C689.975 46.7191 690.022 46.7011 690.068 46.6828C690.649 46.4452 691.238 46.2247 691.832 46.0169C692.184 45.8981 692.54 45.7794 692.9 45.6649C693.396 45.5079 693.901 45.3637 694.405 45.228C694.463 45.2121 694.521 45.196 694.58 45.1798L694.762 45.129C695.016 45.0577 695.271 44.9862 695.528 44.9227C696.275 44.7445 697.021 44.5876 697.775 44.4519C698.279 44.363 698.783 44.291 699.286 44.219L699.288 44.2187L699.354 44.2096L699.355 44.2094C699.667 44.1659 699.976 44.1228 700.285 44.0872C700.836 44.0235 701.391 43.9642 701.947 43.9218C701.984 43.9194 702.022 43.9172 702.059 43.9151C702.12 43.9116 702.181 43.9084 702.241 43.9052L702.313 43.9014C702.391 43.8972 702.47 43.8928 702.549 43.8878C704.541 43.7691 706.542 43.7903 708.526 43.9684C708.579 43.9743 708.633 43.9803 708.686 43.9858C708.71 43.9883 708.734 43.9907 708.758 43.993C708.794 43.9964 708.83 43.9996 708.865 44.0023C710.993 44.2144 713.104 44.5961 715.156 45.1602C715.454 47.0236 715.652 48.9767 715.7 50.9803ZM642.167 83.4985C641.842 86.1236 641.397 90.7269 641.448 95.9324C641.545 88.7715 642.487 83.1992 642.487 83.1992C642.487 83.1992 642.378 83.3074 642.167 83.4985ZM676.979 104.432C677.168 96.0782 675.045 87.4434 673.908 83.4579C673.455 83.3028 673.213 83.1992 673.213 83.1992C673.213 83.1992 676.774 93.7226 676.979 104.432ZM521.051 59.638C521.291 59.6337 521.418 59.6249 521.418 59.6249C521.418 59.6249 514.519 68.4841 510.944 78.505C513.798 70.0107 519.195 62.1872 521.051 59.638ZM549.816 69.5033C549.815 69.5007 549.814 69.4994 549.814 69.4994C549.814 69.4994 549.807 69.5406 549.793 69.62C549.801 69.58 549.809 69.5411 549.816 69.5033Z" fill="#E5E7EA"/>
<path d="M528.466 11.0674C527.622 12.3981 526.892 13.7943 526.274 15.243C526.888 13.7929 527.622 12.3981 528.466 11.0674Z" fill="#E5E7EA"/>
<path d="M513.994 16.6675C514.123 16.756 514.251 16.8444 514.379 16.9308C514.258 16.8492 514.137 16.7654 514.016 16.6813L514.014 16.6797C513.825 16.5484 513.636 16.4165 513.442 16.2931C513.628 16.4147 513.812 16.5413 513.994 16.6675Z" fill="#E5E7EA"/>
<path d="M510.25 14.4617C510.677 14.6824 511.107 14.9048 511.525 15.1392C511.161 14.9312 510.785 14.7376 510.411 14.5452L510.41 14.5446L510.25 14.4617Z" fill="#E5E7EA"/>
<path d="M507.855 13.3144C508.354 13.5274 508.846 13.76 509.333 13.9952C508.846 13.76 508.352 13.5314 507.855 13.3144Z" fill="#E5E7EA"/>
<path d="M515.627 17.8211C515.916 18.0344 516.202 18.2553 516.487 18.4801C516.204 18.2569 515.918 18.0411 515.633 17.8254L515.632 17.8247L515.628 17.8219L515.627 17.8211Z" fill="#E5E7EA"/>
<path d="M1080 186.713C1071.71 194.096 1054.9 192.128 1051.09 180.873C1045.6 206.341 1013.63 220.769 989.455 211.082C965.282 201.391 951.891 172.535 956.367 146.872C960.848 121.21 980.679 99.8178 1004.54 89.3763C989.044 86.416 976.555 71.8819 975.957 56.1093C975.609 47.0165 979.251 38.0466 985.3 31.2779C968.025 36.91 946.786 31.7486 936.129 16.6759C932.597 11.6805 930.478 5.95195 929.625 0H1080V186.713Z" fill="#E5E7EA"/>
<path d="M695.533 42.9196C695.302 42.974 695.073 43.0379 694.845 43.1017L694.715 43.1385L694.68 43.1476L694.587 43.1731L694.513 43.1933C694.478 43.2026 694.444 43.2117 694.409 43.2207C694.511 43.1941 694.613 43.1665 694.715 43.1385L694.871 43.0957C695.091 43.0351 695.311 42.9744 695.533 42.9196Z" fill="#E5E7EA"/>
<path d="M699.244 42.2226C698.755 42.2924 698.263 42.3627 697.779 42.4488C698.203 42.3699 698.632 42.3092 699.06 42.2487L699.244 42.2226Z" fill="#E5E7EA"/>
<path d="M701.951 41.9187C701.396 41.9569 700.84 42.0163 700.289 42.0799C700.84 42.0163 701.396 41.9611 701.951 41.9187Z" fill="#E5E7EA"/>
<path d="M692.9 43.6618C692.544 43.7721 692.188 43.8908 691.832 44.0138C692.187 43.8912 692.542 43.7771 692.896 43.663L692.899 43.6622L692.9 43.6618Z" fill="#E5E7EA"/>
<path d="M743.387 0H811.982C811.139 5.93114 804.471 10.1302 798.344 9.70827C791.815 9.26295 786.16 5.00058 781.705 0.199582C785.304 6.12873 777.609 22.1264 761.076 19.2509C751.199 17.5317 744.771 9.57793 743.387 0Z" fill="#E5E7EA"/>
</svg>
