<svg width="1058" height="127" viewBox="0 0 1058 127" fill="none" xmlns="http://www.w3.org/2000/svg">
<path d="M6.25993 23.9451C13.7693 30.728 25.368 32.5569 34.5976 28.4163C31.4585 40.6409 35.3086 54.1779 43.6213 63.6728C51.9331 73.1711 64.3083 78.6963 76.8845 79.6915C86.4152 80.4454 96.3148 78.6434 104.381 73.5086C118.572 64.4715 124.74 47.2137 129.968 31.2161C132.523 39.3335 142.146 44.1393 150.421 42.1534C158.697 40.1642 164.905 32.2753 165.861 23.8161C173.898 37.3004 191.812 43.9504 206.701 38.9804C221.591 34.007 231.922 17.9291 230.255 2.31858C233.08 3.33158 236.066 2.1572 238.217 0H5.52549L0.947266 17.0862C2.3219 19.6495 4.09658 21.9931 6.25993 23.9451Z" fill="#ABB8C0"/>
<path d="M412.458 38.3327C413.354 31.9844 419.485 26.823 425.89 27.0195C432.295 27.2161 438.095 32.7507 438.596 39.1393C438.85 33.4704 440.755 27.6617 444.89 23.7833C449.029 19.9025 455.653 18.437 460.575 21.2575C465.65 24.1656 467.605 30.3799 469.138 36.0249C469.235 35.8449 469.34 35.6702 469.451 35.5008C466.751 26.3128 469.272 17.7316 472.852 11.0749C474.929 11.2142 477.003 11.5407 479.037 12.0292C479.142 12.0567 479.252 12.0819 479.362 12.1069C481.252 12.5802 483.108 13.2037 484.911 13.9535C485.004 13.9924 485.097 14.0303 485.19 14.0684C485.278 14.1044 485.367 14.1407 485.457 14.1783C485.956 14.3958 486.451 14.6291 486.94 14.8648C487.213 14.9966 487.484 15.1352 487.758 15.2754L487.759 15.276L487.761 15.2768L487.819 15.3066L487.82 15.3074C488.263 15.5355 488.705 15.7639 489.142 16.0076C489.796 16.3752 490.435 16.7597 491.067 17.1637C491.285 17.305 491.498 17.4529 491.71 17.6004C491.809 17.6694 491.908 17.7382 492.008 17.8063C492.43 18.0935 492.85 18.3886 493.258 18.6927C493.555 18.914 493.846 19.138 494.133 19.3605C494.615 19.7429 495.088 20.1356 495.549 20.5412C495.616 20.5983 495.683 20.6546 495.751 20.711C495.875 20.815 496 20.9192 496.121 21.0295C496.753 21.5998 497.358 22.196 497.949 22.8089C498.066 22.9309 498.179 23.0552 498.292 23.1795L498.293 23.1807L498.294 23.1824C498.351 23.2449 498.408 23.3075 498.465 23.3698C498.912 23.8538 499.346 24.3468 499.766 24.8566C499.812 24.9129 499.859 24.9688 499.905 25.0247C500.026 25.1701 500.146 25.3149 500.262 25.4631C500.811 26.158 501.339 26.8631 501.835 27.5966C501.631 23.66 502.405 19.7432 503.938 16.13C504.554 14.6874 505.289 13.2948 506.133 11.9665C509.746 6.26852 515.348 1.80325 521.856 0H535.357C543.448 2.09591 550.688 7.75581 554.028 15.4466C554.25 13.0781 554.821 10.8923 555.683 8.89517C556.115 7.89267 556.616 6.94479 557.176 6.03962C558.022 4.68127 559.011 3.42963 560.109 2.29077C560.897 1.46995 561.745 0.706252 562.64 0H606.897C607.813 0.974023 608.663 2.00991 609.439 3.10054C610.376 4.42378 611.198 5.82761 611.872 7.29929C612.551 8.77098 613.085 10.3148 613.445 11.9137C613.682 12.9782 613.848 14.064 613.928 15.1794C614.089 17.4018 613.907 19.7089 613.326 22.0755C622.068 12.5626 637.8 10.4802 648.716 17.389C654.854 21.2782 659.077 27.7629 660.73 34.8245C661.099 36.3937 661.341 37.9884 661.451 39.5915C661.718 43.6037 661.15 47.654 659.632 51.3947C660.357 50.8518 661.103 50.3471 661.866 49.8594C662.028 49.7552 662.193 49.6554 662.358 49.5553C662.422 49.5169 662.485 49.4783 662.549 49.4395C663.125 49.0875 663.71 48.7567 664.304 48.4386C664.337 48.4205 664.371 48.4023 664.405 48.384L664.532 48.3147C664.683 48.2317 664.835 48.1488 664.99 48.0696C665.766 47.6752 666.551 47.302 667.352 46.9627C667.506 46.8967 667.661 46.8379 667.816 46.7792L667.928 46.737C667.975 46.7191 668.022 46.7011 668.068 46.6828C668.649 46.4452 669.238 46.2247 669.832 46.0169C670.184 45.8981 670.54 45.7794 670.9 45.6649C671.396 45.5079 671.901 45.3637 672.405 45.228C672.524 45.1956 672.643 45.1623 672.762 45.129C673.016 45.0577 673.271 44.9862 673.528 44.9227C674.275 44.7445 675.021 44.5876 675.775 44.4519C676.279 44.363 676.783 44.291 677.286 44.219L677.288 44.2187L677.354 44.2096L677.355 44.2094C677.667 44.1659 677.976 44.1228 678.285 44.0872C678.836 44.0235 679.391 43.9642 679.947 43.9218C680.046 43.9156 680.144 43.9104 680.241 43.9052C680.344 43.8998 680.446 43.8944 680.549 43.8878C682.541 43.7691 684.542 43.7903 686.526 43.9684C686.64 43.9811 686.755 43.9939 686.865 44.0023C688.993 44.2144 691.104 44.5961 693.156 45.1602C694.534 53.7867 693.788 64.3302 685.784 72.9483C669.141 90.8842 651.213 83.1992 651.213 83.1992C651.213 83.1992 665.3 124.83 639.05 126.752C612.805 128.673 620.487 83.1992 620.487 83.1992C620.487 83.1992 607.044 96.6479 587.195 88.3225C581.63 85.9851 577.475 81.7337 574.378 76.8261C569.549 81.162 563.697 84.5012 556.938 84.9217C535.925 86.2187 527.814 69.4994 527.814 69.4994C527.814 69.4994 520.334 113.893 496.695 103.687C473.052 93.4802 499.418 59.6249 499.418 59.6249C499.418 59.6249 493.637 60.027 486.836 56.7243C486.892 59.8698 485.601 63.1056 482.907 65.4218C478.163 69.4961 472.181 68.7377 467.509 66.3792C468.331 78.9791 459.457 89.7424 447.645 88.6826C433.967 87.4535 431.273 73.1809 435.374 69.2573C430.835 72.1079 425.463 74.2788 420.208 73.248C414.953 72.2206 410.322 66.9168 411.665 61.73C412.863 57.1147 417.8 54.6799 422.229 52.9208C416.02 51.3362 411.559 44.6768 412.458 38.3327Z" fill="#ABB8C0"/>
<path d="M721.387 0H789.982C789.139 5.93114 782.471 10.1302 776.344 9.70827C769.815 9.26295 764.16 5.00058 759.705 0.199582C763.304 6.12873 755.609 22.1264 739.076 19.2509C729.199 17.5317 722.771 9.57793 721.387 0Z" fill="#ABB8C0"/>
<path d="M1020.37 0H1058V43.2806C1051.33 42.6434 1044.82 40.5032 1039.2 36.7923C1027.19 28.8467 1020.19 14.3225 1020.37 0Z" fill="#ABB8C0"/>
</svg>
